<?xml version="1.0" encoding="UTF-8" standalone="no"?>
<!-- Created with Inkscape (http://www.inkscape.org/) -->

<svg
   xmlns:dc="http://purl.org/dc/elements/1.1/"
   xmlns:cc="http://creativecommons.org/ns#"
   xmlns:rdf="http://www.w3.org/1999/02/22-rdf-syntax-ns#"
   xmlns:svg="http://www.w3.org/2000/svg"
   xmlns="http://www.w3.org/2000/svg"
   xmlns:sodipodi="http://sodipodi.sourceforge.net/DTD/sodipodi-0.dtd"
   xmlns:inkscape="http://www.inkscape.org/namespaces/inkscape"
   width="425.18542mm"
   height="71.17292mm"
   viewBox="0 0 425.18542 71.17292"
   version="1.1"
   id="svg8"
   inkscape:version="0.92.5 (2060ec1f9f, 2020-04-08)"
   sodipodi:docname="deel-torchlip.svg">
  <defs
     id="defs2" />
  <sodipodi:namedview
     id="base"
     pagecolor="#ffffff"
     bordercolor="#666666"
     borderopacity="1.0"
     inkscape:pageopacity="0.0"
     inkscape:pageshadow="2"
     inkscape:zoom="0.7"
     inkscape:cx="835.15328"
     inkscape:cy="-125.42142"
     inkscape:document-units="mm"
     inkscape:current-layer="layer1"
     showgrid="false"
     inkscape:window-width="1920"
     inkscape:window-height="1017"
     inkscape:window-x="1912"
     inkscape:window-y="-8"
     inkscape:window-maximized="1" />
  <metadata
     id="metadata5">
    <rdf:RDF>
      <cc:Work
         rdf:about="">
        <dc:format>image/svg+xml</dc:format>
        <dc:type
           rdf:resource="http://purl.org/dc/dcmitype/StillImage" />
        <dc:title></dc:title>
      </cc:Work>
    </rdf:RDF>
  </metadata>
  <g
     inkscape:label="Layer 1"
     inkscape:groupmode="layer"
     id="layer1"
     transform="translate(420.53146,-75.291054)"
     style="display:inline">
    <path
       style="fill:#000000;stroke-width:0.26458335"
       d="m -307.81896,141.83377 v -0.92605 h 2.51354 2.51354 v 0.92605 0.92604 h -2.51354 -2.51354 z m 6.61458,0 c 0,-0.88195 0.0441,-0.92605 0.92605,-0.92605 h 0.92604 v -2.38125 -2.38125 h 1.05833 1.05833 v 2.38125 2.38125 h 0.92605 c 0.88194,0 0.92604,0.0441 0.92604,0.92605 v 0.92604 h -2.91042 -2.91042 z m 7.40834,-2.38125 v -3.3073 h 1.79916 c 1.92642,0 2.43417,-0.25745 2.43417,-1.23423 0,-0.82425 -0.73963,-1.14702 -2.62844,-1.14702 h -1.60489 v -0.79375 -0.79375 h 2.39327 c 2.1702,0 2.45218,0.0589 3.02518,0.6319 2.0059,2.00591 0.4023,5.18894 -2.61417,5.18894 h -0.9522 v 2.38125 2.38125 h -0.92604 -0.92604 z m 9.39271,2.89555 c -0.75982,-0.39101 -1.70151,-1.36038 -1.71391,-1.76428 -0.003,-0.10541 0.3354,-0.36813 0.75253,-0.58384 0.71408,-0.36926 0.7941,-0.3542 1.36904,0.25779 0.7036,0.74896 1.36115,0.82774 1.95469,0.23421 0.64266,-0.64267 0.55107,-0.81101 -1.5686,-2.88308 -1.83839,-1.7971 -1.98438,-2.0205 -1.98438,-3.03667 0,-2.27962 2.94356,-3.33169 4.89479,-1.74946 l 0.79375,0.64365 -0.72038,0.73087 -0.72038,0.73086 -0.64507,-0.60602 c -0.75305,-0.70745 -1.58519,-0.65076 -1.69545,0.1155 -0.0543,0.37738 0.42324,0.97796 1.61418,2.03004 0.93022,0.82176 1.84669,1.86925 2.03661,2.32776 1.04873,2.53185 -1.81865,4.86431 -4.36742,3.55267 z m 8.91165,-0.2753 c -3.79476,-1.89101 -3.79186,-7.53953 0.005,-9.52304 1.38008,-0.72099 4.41543,-0.49405 5.88868,0.44026 l 1.28279,0.81352 -0.70468,0.70468 c -0.5978,0.5978 -0.77447,0.65419 -1.16484,0.37179 -2.95124,-2.135 -6.1487,-0.85789 -6.1487,2.45587 0,2.95488 2.97218,4.55715 5.39878,2.91042 1.19789,-0.81291 1.24539,-0.81342 1.9897,-0.0211 l 0.60155,0.64032 -1.04009,0.6883 c -2.09723,1.38788 -4.03421,1.55247 -6.10808,0.51902 z m 8.68314,-2.62025 v -3.3073 h 2.77812 2.77813 v -1.98437 -1.98438 h 1.05833 1.05833 v 5.29167 5.29167 h -1.05833 -1.05833 v -2.39334 -2.39334 l -1.78594,0.0782 -1.78594,0.0782 -0.0764,2.3151 -0.0765,2.31511 h -0.91574 -0.91574 z m 8.99583,2.38125 c 0,-0.88195 0.0441,-0.92605 0.92604,-0.92605 h 0.92604 v -2.38125 -2.38125 h 1.05834 1.05833 v 2.38125 2.38125 h 0.92604 c 0.88195,0 0.92604,0.0441 0.92604,0.92605 v 0.92604 h -2.91041 -2.91042 z m 9.26042,-2.24896 v -3.175 h 1.05833 1.05833 v 3.175 3.175 h -1.05833 -1.05833 z m 6.13066,1.25677 c 2.09529,-4.92905 1.9475,-4.69636 2.9829,-4.69636 1.13843,0 1.13892,0.008 0.14685,2.33905 -1.0531,2.47476 -1.0727,2.42345 0.92605,2.42345 h 1.71979 v 0.92605 0.92604 h -3.2955 -3.29551 z m 15.036,-1.38906 v -3.3073 h 1.83319 c 2.40794,0 3.11479,-0.56263 2.25285,-1.79321 -0.35837,-0.51165 -0.65051,-0.58804 -2.24895,-0.58804 h -1.83709 v -0.79375 -0.79375 h 2.39328 c 2.17728,0 2.45092,0.0576 3.03195,0.63868 1.94141,1.94141 0.71639,4.83656 -2.18774,5.1704 l -1.25311,0.14405 -0.0764,2.3151 -0.0764,2.31511 h -0.91574 -0.91575 z m 10.84792,1.05392 c 0,-2.20325 -0.0324,-2.31789 -1.45521,-5.15497 -1.7304,-3.45032 -1.69155,-3.175 -0.44799,-3.175 0.98531,0 1.02671,0.0403 1.9032,1.85209 l 0.89598,1.85208 h 1.14489 1.14489 l -0.53455,1.04779 c -0.41964,0.82257 -0.53454,1.56191 -0.53454,3.43959 v 2.39179 h -1.05834 -1.05833 z m 8.73125,-0.92163 v -3.175 h 0.92604 0.92605 v 3.175 3.175 h -0.92605 -0.92604 z m 8.91249,2.92136 c -3.94304,-1.26512 -4.88302,-6.94531 -1.5678,-9.47395 1.42208,-1.08467 4.33602,-1.19326 5.9912,-0.22326 3.28105,1.92282 3.30846,7.12816 0.0482,9.14313 -1.04855,0.64804 -3.30667,0.92785 -4.47157,0.55408 z m 3.81092,-2.54691 c 1.53851,-1.47399 1.61366,-3.40106 0.19562,-5.01612 -1.95971,-2.23199 -5.38216,-0.9778 -5.69264,2.08615 -0.31506,3.10904 3.29929,5.03553 5.49702,2.92997 z m 4.47451,-0.37445 v -3.175 h 1.83318 c 1.92947,0 2.66474,-0.35893 2.66474,-1.30081 0,-0.92189 -0.85973,-1.34503 -2.73282,-1.34503 h -1.7651 v -0.79375 -0.79375 h 2.26635 c 2.5399,0 3.10768,0.20307 3.68404,1.31762 0.76351,1.47647 0.43895,3.05512 -0.85223,4.14522 l -0.67283,0.56804 1.24078,2.27623 1.24077,2.27623 -1.13834,-0.003 -1.13833,-0.003 -1.19063,-2.29024 -1.19062,-2.29025 -0.0764,2.29338 -0.0765,2.29338 h -1.04803 -1.04803 z m 11.81027,2.78743 c -3.91822,-1.3968 -4.63012,-6.7328 -1.24553,-9.33587 1.60901,-1.23748 4.55934,-1.27041 6.44908,-0.072 1.40915,0.89365 1.50018,1.14765 0.61839,1.72543 -0.57948,0.37968 -0.70702,0.36145 -1.78594,-0.2553 -2.64529,-1.51215 -5.52554,1.9e-4 -5.52554,2.90132 0,2.96546 3.32846,4.55144 5.82348,2.77483 l 0.82316,-0.58614 0.64113,0.60232 c 1.59217,1.49575 -2.9581,3.25786 -5.79823,2.24538 z m 8.03348,-2.91972 v -3.3073 h 2.77812 2.77813 v -1.98437 -1.98438 h 1.05833 1.05834 v 5.29167 5.29167 h -1.05834 -1.05833 v -2.39334 -2.39334 l -1.78594,0.0782 -1.78594,0.0782 -0.0764,2.3151 -0.0764,2.31511 h -0.91574 -0.91574 z m 16.66875,2.38125 v -0.92605 h 2.51354 2.51354 v 0.92605 0.92604 h -2.51354 -2.51354 z m 7.97335,-2.84428 c 0.7379,-2.07367 1.5784,-4.45492 1.8678,-5.29166 l 0.52618,-1.52136 h 1.10879 1.10879 l 1.00364,2.97657 c 0.552,1.63711 1.06407,3.12539 1.13792,3.30729 0.0941,0.23185 -0.18225,0.33073 -0.92451,0.33073 h -1.05881 l -0.58015,-1.74331 c -0.67186,-2.01895 -0.72006,-1.9959 -1.70889,0.81727 -1.84941,5.26141 -1.64031,4.89479 -2.79165,4.89479 h -1.03076 z m 5.85414,2.84428 -0.28421,-0.92605 h 1.00769 c 0.9261,0 1.58861,0.73368 1.58861,1.75928 0,0.051 -0.45627,0.0928 -1.01393,0.0928 -0.92827,0 -1.03796,-0.0782 -1.29816,-0.92604 z m 7.07459,-1.32733 c 0,-2.20325 -0.0324,-2.31789 -1.45521,-5.15497 -1.7304,-3.45032 -1.69156,-3.175 -0.44799,-3.175 0.98531,0 1.02672,0.0403 1.9032,1.85209 l 0.89599,1.85208 h 1.14488 1.14487 l -0.53453,1.04779 c -0.41963,0.82257 -0.53454,1.56191 -0.53454,3.43959 v 2.39179 h -1.05833 -1.05834 z m 6.61459,-1.05392 v -3.3073 h 2.91041 2.91042 v 0.92605 0.92604 h -1.85208 -1.85209 v 1.45521 1.4552 h 1.85209 1.85208 v 0.92605 0.92604 h -2.91042 -2.91041 z m 7.40833,0.13229 v -3.175 h 1.60488 c 2.01547,0 2.62845,-0.30853 2.62845,-1.32292 0,-1.01439 -0.61298,-1.32292 -2.62845,-1.32292 h -1.60488 v -0.79375 -0.79375 h 2.34516 c 2.15228,0 2.3999,0.0547 3.0104,0.66522 1.303,1.30299 1.19817,3.43647 -0.22463,4.57174 l -0.88114,0.70309 1.1824,2.18684 c 1.4248,2.63518 1.41411,2.45645 0.14705,2.45645 -1.02026,0 -1.0514,-0.0299 -2.13688,-2.05052 -1.54387,-2.87392 -1.59028,-2.88125 -1.59028,-0.25136 v 2.30188 h -0.92604 -0.92604 z m 10.16487,2.9328 c -0.3029,-0.13032 -0.87643,-0.624 -1.27447,-1.09707 l -0.72377,-0.86012 0.78822,-0.49905 0.78819,-0.49906 0.67271,0.67271 c 0.72704,0.72705 1.46214,0.85981 1.96675,0.3552 0.61357,-0.61357 0.3026,-1.24662 -1.29495,-2.63612 -2.46724,-2.14595 -2.98831,-3.69548 -1.70746,-5.07753 0.90889,-0.98074 3.19156,-1.01305 4.29733,-0.0608 l 0.74237,0.63926 -0.62693,0.66821 -0.6269,0.6682 -0.73195,-0.54114 c -0.79708,-0.58931 -1.85068,-0.47635 -1.85068,0.19841 0,0.21145 0.89297,1.24614 1.98438,2.2993 1.85441,1.78943 1.98437,1.98809 1.98437,3.03312 0,2.11009 -2.38516,3.59783 -4.38721,2.73651 z m -198.81279,-7.16614 v -3.175 h 1.05833 1.05834 v 3.175 3.175 h -1.05834 -1.05833 z m 153.72292,0 v -3.175 h 1.05833 1.05834 v 3.175 3.175 h -1.05834 -1.05833 z m -147.10834,-2.38125 v -0.79375 h 2.91042 2.91042 v 0.79375 0.79375 h -2.91042 -2.91042 z m 34.39584,0 c 0,-0.73075 0.0735,-0.79375 0.92604,-0.79375 0.85255,0 0.92604,0.063 0.92604,0.79375 0,0.73076 -0.0735,0.79375 -0.92604,0.79375 -0.85255,0 -0.92604,-0.063 -0.92604,-0.79375 z m 8.99583,0 v -0.79375 h 2.91042 2.91041 v 0.79375 0.79375 h -2.91041 -2.91042 z m 7.40833,0 v -0.79375 h 2.91042 2.91042 v 0.79375 0.79375 h -2.91042 -2.91042 z m 7.40834,0 v -0.79375 h 3.175 c 1.74625,0 3.175,0.0539 3.175,0.11985 0,0.0659 -0.13818,0.4231 -0.30706,0.79375 -0.30154,0.66182 -0.35848,0.6739 -3.175,0.6739 h -2.86794 z m 28.575,0.58804 c 0,-0.72826 0.89013,-1.38179 1.88204,-1.38179 h 1.05829 l -0.46888,0.79375 c -0.44718,0.75702 -2.47145,1.23866 -2.47145,0.58804 z m 4.49791,-0.58804 v -0.79375 h 3.04271 3.04271 v 0.79375 0.79375 h -3.04271 -3.04271 z m 39.15834,0 c 0,-0.73075 0.0735,-0.79375 0.92604,-0.79375 0.85255,0 0.92604,0.063 0.92604,0.79375 0,0.73076 -0.0735,0.79375 -0.92604,0.79375 -0.85255,0 -0.92604,-0.063 -0.92604,-0.79375 z m 39.6875,0.58804 c 0,-0.72826 0.89014,-1.38179 1.88203,-1.38179 h 1.05831 l -0.46889,0.79375 c -0.44718,0.75702 -2.47145,1.23866 -2.47145,0.58804 z m 4.49792,-0.58804 v -0.79375 h 2.91041 2.91042 v 0.79375 0.79375 h -2.91042 -2.91041 z M -417.62104,109.1885 V 96.193138 h 4.10104 4.10104 v 8.995832 8.99584 h 2.71892 c 3.53746,0 6.73809,-0.41217 8.59461,-1.10678 6.85643,-2.56532 8.71236,-15.877873 3.05862,-21.939424 -3.15385,-3.381344 -4.52421,-3.752785 -14.50444,-3.931476 l -7.9375,-0.142117 -0.0732,-3.902604 -0.0732,-3.902605 h 6.82704 c 11.22679,0 15.34759,0.841937 19.49948,3.984021 9.95382,7.532884 10.44719,26.623875 0.89537,34.646175 -4.12846,3.46737 -6.30398,3.95807 -18.41035,4.15254 l -8.79739,0.14132 z m 40.48125,-0.55994 V 95.134805 h 11.64166 11.64167 v 3.802898 3.802897 l -7.67292,0.19489 -7.67291,0.19489 v 5.52721 5.52722 h 7.67291 7.67292 v 3.96875 3.96875 h -11.64167 -11.64166 z m 29.10416,0 V 95.134805 h 11.64167 11.64167 v 3.802898 3.802897 l -7.67292,0.19489 -7.67292,0.19489 v 5.52721 5.52722 h 7.67292 7.67292 v 3.96875 3.96875 h -11.64167 -11.64167 z m 29.10417,9.65729 v -3.83646 h 9.92188 9.92187 v 3.83646 3.83646 h -9.92187 -9.92188 z m 53.975,-8.99584 V 96.457722 h 4.23333 4.23334 v 12.832288 12.8323 h -4.23334 -4.23333 z m 38.76146,12.4609 c -11.62538,-2.25927 -19.07358,-13.66937 -16.64752,-25.50278 1.48672,-7.251674 6.76067,-13.157878 14.07331,-15.760482 2.9378,-1.045576 9.50046,-1.223085 12.36379,-0.334419 7.29479,2.264014 13.01196,8.346868 14.69642,15.636431 0.73417,3.177098 0.63301,8.43639 -0.2164,11.2514 -3.11875,10.33577 -13.71856,16.76033 -24.2696,14.70985 z m 6.21771,-7.31519 c 12.65492,-2.01808 15.19211,-20.360901 3.60352,-26.05204 -7.90795,-3.883583 -16.98391,0.585695 -18.81417,9.264667 -1.88196,8.924103 3.88285,16.498593 12.96169,17.030623 0.29104,0.0171 1.30307,-0.0924 2.24896,-0.24325 z m 24.60625,-5.24087 V 96.267388 l 6.94904,-0.129426 c 9.15591,-0.170529 10.20749,-0.587323 10.45618,-4.144321 0.13062,-1.86827 -0.58198,-3.07107 -2.32436,-3.923293 -1.0982,-0.53715 -1.72728,-0.596431 -8.13555,-0.766647 l -6.94531,-0.184482 v -3.797416 -3.797415 h 6.85589 c 11.37795,0 14.64508,1.209362 17.18051,6.359554 3.05457,6.20472 0.94443,13.2435 -4.89738,16.336148 l -1.85967,0.98451 4.97376,9.26041 c 2.73557,5.09323 4.97943,9.3526 4.98636,9.46526 0.007,0.11266 -1.97564,0.17219 -4.40573,0.13229 l -4.41833,-0.0726 -4.69895,-8.86354 c -2.63802,-4.97604 -4.87777,-8.90106 -5.10667,-8.94908 -0.36092,-0.0757 -0.40771,0.94902 -0.40771,8.92968 v 9.01524 h -4.10104 -4.10104 z m 50.6258,12.55473 c -6.88306,-1.31703 -12.26913,-5.27154 -15.13993,-11.11591 -2.6519,-5.39874 -2.86513,-12.957618 -0.52431,-18.58648 4.54163,-10.921044 18.30801,-15.868505 29.73605,-10.686773 3.22755,1.463431 8.59967,5.742922 7.91895,6.308298 -0.13917,0.115574 -1.34485,1.25966 -2.6793,2.542413 l -2.42628,2.33228 -1.57425,-1.310096 c -5.2306,-4.352958 -10.80913,-5.548751 -16.30058,-3.494134 -10.10187,3.779594 -11.67769,18.573852 -2.61763,24.574992 5.48206,3.63116 12.5462,2.99343 18.2477,-1.64735 l 2.1485,-1.74878 2.47441,2.51212 c 1.36091,1.38166 2.50873,2.61011 2.55066,2.72988 0.21598,0.61668 -4.58427,4.31753 -7.52004,5.79771 -3.61849,1.8244 -9.96558,2.62004 -14.29395,1.79183 z m 28.48462,-12.85644 V 95.663972 h 11.24479 11.244789 V 87.59418 79.524388 h 4.101042 4.101042 v 21.298962 21.29896 h -4.097655 -4.097655 l -0.06953,-9.32657 -0.06953,-9.32656 -7.077603,-0.0705 -7.0776,-0.0705 v 9.39704 9.39703 h -4.10104 -4.10104 z m 36.247913,9.39271 v -3.83646 h 10.054166 10.054167 v 3.83646 3.83646 h -10.054167 -10.054166 z m 26.458333,-0.13229 v -3.96875 h 3.795025 3.795051 l 0.172826,-4.16719 c 0.09506,-2.29196 0.173222,-6.28055 0.173725,-8.86354 v -4.696358 h 3.96875 3.96875 v 8.863538 8.86355 h 3.836459 3.836458 v 3.96875 3.96875 h -11.773958 -11.773959 v -3.96875 z m 29.104167,-9.12813 V 95.928555 l 7.077604,-0.0058 c 6.406727,-0.0053 7.183676,-0.05396 8.1966068,-0.513784 2.7148897,-1.232408 3.1830169,-5.054944 0.849339,-6.934976 -1.3164873,-1.06056 -3.0025448,-1.273339 -10.1042788,-1.275147 l -6.019271,-0.0015 V 83.19895 79.200595 l 7.474479,0.125735 c 11.6303958,0.195645 14.8523065,1.571087 17.19783776,7.341808 0.87434204,2.151126 0.87600894,7.988026 0.00291,9.881976 -2.24361376,4.866406 -5.98000666,6.975896 -12.83504276,7.246396 l -3.638021,0.14356 v 9.09112 9.09112 h -4.101042 -4.101042 v -13.09688 z m -264.936113,-0.30868 c -0.097,-0.097 -0.17639,-1.16858 -0.17639,-2.38125 v -2.20486 h 7.01146 7.01146 v 2.38125 2.38125 h -6.83507 c -3.75929,0 -6.91445,-0.0794 -7.01146,-0.17639 z M -318.93146,92.488971 V 79.524388 h 3.96875 3.96875 v 12.964583 12.964589 h -3.96875 -3.96875 z m 238.918753,0 V 79.524388 h 4.101041 4.101042 v 12.964583 12.964589 h -4.101042 -4.101041 z M -377.13979,83.493138 v -3.96875 h 11.64166 11.64167 v 3.96875 3.96875 h -11.64167 -11.64166 z m 29.10416,0 v -3.96875 h 11.64167 11.64167 v 3.96875 3.96875 h -11.64167 -11.64167 z m 294.481256,0 v -3.96875 h 11.773959 11.773958 v 3.96875 3.96875 H -41.780415 -53.554374 Z M -272.36479,83.228554 v -3.96875 h 11.77396 11.77395 v 3.96875 3.968751 h -11.77395 -11.77396 z m 156.10417,-0.132291 v -3.571875 h 4.10104 4.10104 v 3.571875 3.571875 h -4.10104 -4.10104 z"
       id="path4548"
       inkscape:connector-curvature="0" />
  </g>
</svg>
